<?xml version="1.0"?>
<svg width="560" height="206" xmlns="http://www.w3.org/2000/svg" xmlns:svg="http://www.w3.org/2000/svg" data-id="lg_CbMsA35kixV5CsSRiy" data-version="1" xml:space="preserve">
 <g class="layer">
  <title>Layer 1</title>
  <g data-padding="20" id="svg_1" transform="translate(-63 1) matrix(0.991071 0 0 0.985437 -648.571 1)">
   <g id="svg_2" transform="translate(10 3.679)scale(.96429)">
    <rect fill="none" height="212.35" id="svg_3" transform="matrix(.97 0 0 .97 495.73 400.48)" width="381.02" x="455.2" y="-412.86"/>
    <path d="m948.42,25.47l-6.4,0l0,-5.76l25.25,0q10.79,0 16.66,4.71t5.87,14.04q0,6.18 -4.35,12.83q-4.35,6.65 -8.55,9.06l16.56,26.93l7.44,0l0,5.76l-11.52,0l-18.65,-30.07l-15.19,0l0,24.31l7.65,0l0,5.76l-21.17,0l0,-5.76l6.4,0l0,-61.81zm18.33,0l-11.21,0l0,31.74l17.28,0q9.85,-9.01 9.85,-18.12q0,-6.71 -4.09,-10.17q-4.08,-3.45 -11.83,-3.45m47.34,0l-6.91,0l0,-5.76l21.16,0l0,5.76l-7.12,0l0,61.81l7.12,0l0,5.76l-21.16,0l0,-5.76l6.91,0l0,-61.81zm89.68,67.57l-21.15,0l0,-5.76l6.38,0l-4.81,-13.62l-32.27,0l-4.72,13.62l7.55,0l0,5.76l-21.17,0l0,-5.76l6.92,0l24.4,-67.57l6.4,0l25.25,67.57l7.22,0l0,5.76zm-21.47,-24.62l-14.56,-40.75l-14.04,40.75l28.6,0zm47.03,18.43q11.63,0 17.29,-5.87q3.25,-3.35 3.25,-7.96t-2.25,-7.6t-5.81,-4.6q-3.57,-1.63 -7.92,-2.84t-8.69,-2.56q-4.35,-1.37 -7.92,-3.25q-3.56,-1.89 -5.81,-5.34t-2.25,-8.28q0,-8.38 6.29,-13.72t16.65,-5.35t19.49,2.1l0,0.11l0.31,0l1.16,13.09l-5.13,0.84l-1.16,-8.8q-5.87,-1.05 -12.94,-1.05t-12.31,3.09q-5.24,3.09 -5.24,8.75q0,5.66 4.19,8.59q4.19,2.94 10.17,4.45q5.96,1.52 11.94,3.4q5.98,1.9 10.17,6.5t4.19,12.16q0,10.15 -7.55,15.28q-7.55,5.15 -18.75,5.15q-14.14,0 -23.68,-6.4l0.11,-11.1l5.13,-0.53l0.21,7.97q7.96,3.77 16.86,3.77m-180.5,26.22l-6.81,0l0,-5.76l22.53,0q22.63,0 22.63,17.7q0,7.44 -5.66,16.02q9.96,4.1 9.96,17.92q0,12.37 -6.24,17.02q-6.24,4.67 -19.12,4.67l-24.1,0l0,-5.76l6.81,0l0,-61.81zm19.38,31.63l-12.26,0l0,30.18l9.65,0q4.82,0 7.85,-0.53t5.76,-2.09q5.14,-2.83 5.14,-12.89q0,-7.96 -4.04,-11.31q-4.03,-3.36 -12.1,-3.36m-12.26,-5.76l12.79,0q3.88,0 6.7,0.43q4.61,-7.24 4.61,-13.73q0,-12.57 -16.03,-12.57l-8.07,0l0,25.87zm108.86,41.7l-21.17,0l0,-5.76l6.39,0l-4.82,-13.62l-32.26,0l-4.71,13.62l7.53,0l0,5.76l-21.15,0l0,-5.76l6.9,0l24.42,-67.57l6.39,0l25.24,67.57l7.24,0l0,5.76zm-21.48,-24.62l-14.57,-40.75l-14.03,40.75l28.6,0zm34.25,-42.95l-6.91,0l0,-5.76l21.16,0l0,5.76l-7.12,0l0,61.81l7.12,0l0,5.76l-21.16,0l0,-5.76l6.91,0l0,-61.81zm81.08,67.57l-22.62,0l0,-5.76l7.23,0l-16.97,-27.98l-16.03,27.98l7.44,0l0,5.76l-21.58,0l0,-5.76l7.01,0l19.91,-33.32l-18.02,-28.49l-6.81,0l0,-5.76l21.16,0l0,5.76l-6.29,0l14.57,24.2l13.83,-24.2l-6.29,0l0,-5.76l20.53,0l0,5.76l-7.02,0l-17.81,29.54l20.33,32.27l7.43,0l0,5.76zm74.38,0l-21.15,0l0,-5.76l6.39,0l-4.82,-13.62l-32.27,0l-4.72,13.62l7.55,0l0,5.76l-21.17,0l0,-5.76l6.92,0l24.41,-67.57l6.39,0l25.25,67.57l7.22,0l0,5.76zm-21.47,-24.62l-14.56,-40.75l-14.04,40.75l28.6,0zm47.04,18.43q11.62,0 17.29,-5.87q3.24,-3.35 3.24,-7.96q0,-4.61 -2.25,-7.6t-5.81,-4.6q-3.56,-1.63 -7.92,-2.84q-4.34,-1.2 -8.69,-2.56q-4.34,-1.36 -7.9,-3.25q-3.57,-1.89 -5.82,-5.34t-2.25,-8.28q0,-8.38 6.28,-13.72t16.66,-5.35t19.48,2.1l0,0.11l0.31,0l1.16,13.09l-5.13,0.84l-1.16,-8.8q-5.87,-1.05 -12.94,-1.05t-12.31,3.09q-5.23,3.09 -5.23,8.75q0,5.66 4.19,8.59q4.19,2.94 10.16,4.45q5.98,1.52 11.94,3.41q5.98,1.89 10.17,6.49t4.19,12.16q0,10.15 -7.55,15.29q-7.54,5.14 -18.75,5.14q-14.14,0 -23.68,-6.4l0.11,-11.1l5.13,-0.53l0.21,7.97q7.97,3.77 16.87,3.77" fill="#fff" id="svg_4"/>
    <path d="m766.54,144.42l-0.47,-0.47l0,0.47l-0.47,0l-0.49,-0.47l0.49,0l0,-0.98l0,0.49l0,-0.49l0,0.49l0.47,0l0.47,0.49l0,0.47zm6.7,-0.47l0.47,-0.49l0,-0.98l0.49,-0.47l0,0.47l0.47,0l0.49,-0.47l0,-0.49l0.47,0.49l0,-0.49l0,0.49l-0.47,0l0,0.47l0,-0.47l0,0.47l0.47,-0.47l0,0.47l0,-0.47l0.47,0l0,-0.98l0,0.49l0.49,-0.49l0,0.49l0,-0.49l1.43,0l0,-1.44l0.47,0l0,0.47l0.49,0l0,-0.47l0,0.47l0,-0.47l0.96,0l0.47,-0.98l0,-0.49l0.49,0l0,-0.47l1.43,0l0.47,0.47l0,-0.47l0.49,0l0.47,0.47l0,-0.47l-0.47,0l0,-0.49l0.47,0l0,-0.98l-0.47,-0.49l0,0.49l0,-0.49l0.47,-0.95l0.47,0l-0.47,-0.49l0.47,-0.49l-0.47,-0.49l0.47,-0.47l-0.94,0l0,-0.49l-0.49,0.49l-0.47,0.47l0,0.49l0.47,0l0,0.98l-0.96,0l0,0.48l-0.47,-0.48l-0.47,0.48l0,0.47l0.47,0l0,0.98l-0.47,0.49l-0.96,0l0,0.49l-0.49,0l-0.47,0.47l-0.49,-0.47l0,0.47l-0.94,0l0,-0.96l0,0.49l-0.96,0l0,-0.49l0,0.49l-0.49,0.47l0.49,0l-0.49,0.49l-0.94,0l0,0.49l-0.49,0.49l-0.47,-0.49l-0.96,0l0.47,0l-0.47,0l0,0.49l0.47,0l-0.47,0l0,0.47l-0.47,0l0,0.49l0,-0.49l-0.49,0l-0.47,-0.96l-0.49,0l0,0.49l-0.47,0.47l-0.47,-0.47l-0.49,-0.49l-0.96,0l0,0.49l-0.47,0.47l0,-0.47l-0.47,0l0.47,-1.45l0,-0.49l0.47,-0.98l0.49,-0.97l-0.49,-0.47l0.49,0l0,-0.49l0,0.49l0.47,0.47l0,0.48l0.49,0.49l0.47,0.49l0,0.49l0.47,0.47l0,-2.42l0.49,-0.96l-0.49,0l0,-0.98l-0.47,0l0.47,-0.49l-0.47,0l0,-0.47l-0.47,0l0.47,-0.49l0.47,0l0,0.49l1.45,0l0,0.47l0.47,0.49l0.96,0l0.47,-0.49l0.49,0l0,-0.47l0.47,0l0,-0.49l0.47,-0.49l0,-0.98l0.49,0l0.47,-0.96l0,0.49l0,-0.49l0.49,-0.48l0.47,0l0,-0.49l0.96,-0.47l0.47,0.47l0,-0.47l0.49,0l-0.49,-0.49l0,0.49l0,-0.49l0.49,0l0,-0.49l0.47,0.49l0.96,-1.45l0.47,0l0.49,-0.49l-0.49,0l0,0.47l0,-0.47l0,0.47l-1.9,0l0.47,-0.47l-0.47,-0.49l0,-0.49l-0.49,0.49l-0.47,0l0,0.49l-0.49,0.47l-0.47,0l-0.96,0.49l-0.47,0l-0.49,0.98l-0.47,0l0,0.49l-0.47,0l-0.49,0.47l-0.47,-0.47l-0.49,-0.49l-0.94,0l-0.49,-0.49l0,0.49l-0.47,0l0,0.49l-0.49,0.47l0,-0.47l-0.47,0.47l-0.47,0l0.47,-0.47l-0.47,0l0,-0.49l-0.49,0l0,-0.49l-0.47,-0.98l-0.96,0l0,-0.96l0.47,0l0,-0.49l-0.47,0l0.47,0l0,-1.44l-0.47,-0.49l0,-0.49l-0.96,0l-0.47,-0.49l-0.49,0l0,0.49l-0.47,0.49l-0.47,0l0,-0.49l0,0.49l-0.49,-0.98l0.49,-0.47l0,-0.49l-0.49,0l0.49,-0.49l0.47,0l0.47,0.49l0,-0.49l0,0.49l0.49,0l0.96,-0.49l0,-0.49l0.47,0.49l0,-0.49l0.47,0l-0.47,-0.49l0,0.49l0,-0.49l0.47,-0.47l0,0.47l0.49,-0.47l0,0.47l0.47,-0.47l0,0.47l0.49,0.49l-0.49,0.49l0.49,0.49l-0.49,0.49l0.49,0l-0.49,0l-0.47,0.47l0,0.49l-0.49,0l0.49,0.98l0.47,0l0.49,-0.49l0,-0.49l0,0.49l0.47,0l-0.47,-0.49l0.47,0l0,0.49l0.47,0l0,-0.49l0,0.49l0.49,-0.49l0,0.49l0.47,0.49l0,-1.47l-0.47,0l0,-1.45l0.47,0l-0.47,-0.49l0.47,-0.49l0,0.49l0.96,0l0,-0.49l0.47,0l-0.94,0l0,-0.96l-0.49,0.49l0,-0.49l0.49,0l0,-0.97l0.47,0l-0.47,0l0.47,-0.47l-0.47,0l-0.49,0.47l0,0.49l0,-2.43l-0.47,-0.49l0,-0.96l0.47,0l0.49,0.49l-0.49,0.47l0.49,0l0,-0.96l-0.49,0.49l0,-1.46l0.49,0l0,-0.49l0,0.49l0.94,0l0.49,-0.49l0.47,0.49l-0.47,-0.49l0.47,-0.47l0,0.47l0,-0.47l0.49,0l0,-0.98l0,0.49l0.94,0l0,-0.49l0,0.49l0,-0.98l-0.47,-0.49l0.47,-0.47l0,-0.49l0.49,0l0,-0.49l0.47,-0.49l0,-0.47l0.49,0l0.47,-0.48l0.47,-0.98l0.49,-0.49l0.47,-0.96l-0.47,0l0,-0.49l0,0.98l-0.49,0.47l-0.47,0.49l0,-0.49l0,0.49l-0.47,0.49l0,0.49l-0.96,0l0,-0.49l-0.49,0.49l-0.47,0.48l-0.47,0l-0.49,0.47l-0.45,0l0,-0.47l0,0.47l-0.49,-0.47l0,-0.48l-0.47,0l0,-0.49l0.47,-0.49l0,-0.49l-0.94,0l0,-0.96l-0.49,-0.49l0,-0.49l0,0.98l0,-0.49l0,1.45l-0.47,0l0,0.49l-0.49,0.98l-0.47,0l0.47,0.48l0.49,0l0.47,0.47l0,0.49l-1.43,0l0,1.94l-0.47,-0.49l0,0.49l0,-0.49l-0.49,-0.47l-0.47,0l-0.49,0.47l0,-0.47l0.49,0l0,-0.98l0.47,0l0,-0.96l-0.96,-0.48l-0.47,0l0.47,0l-0.47,0l0,0.95l-0.47,0l-0.49,0.49l-0.47,0.49l-0.49,0.49l0,-0.49l0,0.49l-0.47,0.47l0.47,0l-0.47,0l0.47,0.49l0.49,0.49l0,0.49l-0.49,0l-0.47,0.49l0,-0.49l-0.47,0.49l0,-0.49l-0.49,0l-0.47,0.49l0,0.96l-1.45,0l-0.47,0.48l0,0.49l0,-0.49l0,0.49l0.47,0.49l0,0.47l-0.47,0.49l-0.47,0.49l-0.49,0l-0.47,0.49l0.47,0.96l-0.47,-0.47l0,-0.49l-0.49,0l0,0.49l-0.47,0l-0.47,-0.49l0,0.49l-0.49,-0.49l0,0.49l0,-0.98l0.49,0l-0.49,-0.49l0.49,0l0,-0.49l0.47,0l0,-0.47l-0.47,-0.98l-0.49,-1.44l-1.43,0l0,0.47l-0.47,0l-0.49,-0.47l0,-0.49l0.49,0l0.47,-0.49l0,-0.49l-0.47,0l0.47,-0.49l0.47,0l0.49,-0.47l0,-1.47l0,0.49l0.47,-0.49l0.49,0l0.47,-1.44l0,-2.43l0.47,0l0,-0.49l0.49,-1.45l-0.49,0l0.49,0l0,-0.48l0.47,-0.49l0.49,0l0.47,-0.96l0,-0.49l0.47,0l0.49,-0.49l0,-0.49l0.47,-0.47l0.49,0l0,0.47l0.47,0l0.49,-0.47l0.47,-0.49l0,-0.49l0.47,0l0.49,-0.49l0,-0.96l0.47,0l0,-0.48l0.96,-0.49l0.47,0l0,0.49l0.96,0l0,0.49l0,-0.98l-0.47,0l0.47,0l0,-0.49l-0.47,0l0,-0.47l0.47,-0.49l0,-0.49l0.96,0l0,-0.98l0,0.98l-0.47,0l-0.49,-0.49l0,-0.49l-0.47,0l0.47,0l-0.47,0.49l-0.49,1.45l-0.47,0.49l-0.47,0l0,-0.47l-0.49,0l0,-0.49l0,0.49l-0.47,0l-0.49,0.47l0.49,0l-0.49,0.49l0,0.49l-0.47,0l-0.47,0.49l0,-0.98l-0.49,0l0,-0.49l-0.47,0.49l0,0.49l-0.49,0l0,0.49l0,-0.49l-0.96,0l0,-0.49l0,0.49l-0.47,-0.49l0,0.49l0,-1.45l-0.47,-0.49l0,0.49l-0.49,0l0,0.47l-0.96,0l0,0.49l0,-0.49l-0.47,0l-0.47,0.49l0,-0.49l-0.49,0.49l0.49,0l0,0.49l0.47,0l0,0.96l-0.47,0.48l-0.96,0l-0.49,0.49l0.49,0.49l0,0.49l-0.99,0l0,-0.49l-0.47,-0.98l-0.96,0l0,0.49l0,-0.97l-0.49,-0.47l0,-0.98l-0.47,-0.96l-0.47,0l0,-0.49l-0.49,0l0.49,0l-0.49,0l0,-0.49l0.49,0l0.47,-0.49l0,0.49l0.47,0l0.49,-0.49l0.47,0l0.49,-0.49l0,-1.93l-0.49,-0.49l-0.47,0l0,-0.47l-0.49,0.47l0,-0.47l-0.47,0l0,-0.98l-0.47,0l0.47,-0.49l-0.47,0l0,-0.47l0.47,-0.49l-0.47,0l0.47,-0.49l0.47,-0.48l-0.47,0l0,-0.49l0.47,0l0.49,-0.47l0.47,0l-0.47,0l0,-0.49l-0.96,0l0,-0.49l-0.47,0.49l0,-0.49l-0.49,0l0,-0.96l-0.47,0l0,-1.47l-0.49,-0.49l0,0.49l0,-0.49l-0.47,-0.95l0,1.93l0.47,0.49l-0.47,0.49l0.47,0.47l-1.9,0l0.47,-0.96l-0.96,0l0.49,-0.49l-0.49,-0.49l-0.47,0l-0.49,0.49l0.49,0l-0.49,0.49l-0.47,0l-0.96,0.49l-0.47,0.47l0.47,0.49l0,0.49l-0.47,0.49l0,0.96l-0.49,0.48l0,-0.97l-0.45,0l0,-0.47l0.47,-0.98l0,-0.49l-0.47,-0.47l-0.47,0l0,-0.49l-0.49,0l0.49,-0.49l0,-0.49l0.47,0l-0.47,-0.49l0.47,0.49l0,-0.49l0.47,0l0,-0.95l0.49,-0.49l0.47,-0.98l0.49,0l-0.49,-0.47l0.49,-0.49l0,-1.94l-0.49,-0.49l0,0.49l-0.47,0l0,-2.42l-0.49,-0.49l-0.47,0l0,-0.98l0.47,-0.47l0,1.45l0.49,-0.49l0,0.49l0.47,0l0,-0.49l0.49,0l0.47,-0.49l0.47,-0.96l0,-1.93l0.49,0l0,0.49l0.47,-0.49l0.49,0.49l0.47,0l0,-1.96l0.47,0.49l0,0.49l0.96,0l0,0.97l0.96,0l0,-0.97l-0.47,0l1.43,0l0,-0.49l0.47,-0.96l0,-0.49l-0.47,0l0,-0.49l0.47,-0.98l0,-0.47l-0.47,0.47l0,0.49l-0.47,0l0,0.49l-0.49,0l0,0.49l-0.47,0l0,0.49l-0.49,-0.49l0,-0.49l0,0.49l-0.47,-0.49l0.47,0l0,-0.98l-0.47,-0.47l0,-0.97l0.47,0l-0.47,0.49l0.96,0l0,-0.49l0.47,0l0,-0.49l0.49,0l0,-0.96l0.47,-0.49l0,-0.49l0,0.49l0.47,0l0,0.49l0,-0.49l0,0.49l0.49,0l0.47,-0.49l0,-0.49l0.96,0l0,-0.49l0.47,0.49l0.48,0l0,0.49l0.48,0.49l0.49,-0.49l-0.49,0l0.96,0l0,0.96l0,-0.47l0.47,0l0,0.47l0.49,0l0,-0.47l0.95,0l1.43,-0.49l0,-1.45l0.47,-0.49l0,0.49l0.49,0l0,-0.49l0.47,-0.49l0.49,0l-0.49,-0.48l0,-0.49l0.49,0.49l0.47,0.48l-0.47,0.49l0.47,0l0.47,0.49l0,-0.49l0.49,0l0,-0.49l1.9,0l0,-0.48l0,0.48l0.49,0l0.47,-0.48l-0.47,-0.49l0,-0.47l-0.49,0.47l0,-1.94l-1.43,0l0,-0.49l-0.47,-0.47l0,-0.49l0.96,-0.49l0.47,0l0.47,-0.49l0.49,0l0.47,0.49l0.49,0.49l0.47,0l-0.47,-0.49l0.47,-0.49l0.96,0l0,-1.93l1.43,0l0.47,0.49l0.51,0l0,-0.49l0.47,0l0,0.49l0.49,-0.49l0,0.49l0,-0.49l0.47,0.49l0,-1.94l0.47,0l0,-0.49l0.49,0l0,1.45l0.47,0l0.49,0.49l0.47,0l-0.47,0l0.47,0.49l0,0.49l0.47,0l0,0.48l0,-0.48l0.49,0.48l0,0.47l1.43,0l0.49,0.49l0.47,0.49l0.96,0l0.47,-0.49l0,0.49l0.49,0.49l0.94,0l1.44,-0.98l0.95,0l0.96,-0.49l0.96,-0.47l0.95,0l0,-0.48l0.47,0.48l0.49,-0.48l0,0.48l1.43,0l0,0.47l1.43,0l1.45,-0.47l0,-0.48l0.94,0l0,-0.49l0.49,-0.49l0.47,-0.96l-0.47,0l0.47,0l-0.47,0l0.47,-0.49l0.47,0l-0.47,0.49l0.96,0l0,-0.49l0.47,0l-0.47,0l0.96,0l0,-0.98l0.94,0l0,-0.47l0.49,-0.49l0,0.49l0.96,0l0,0.47l0.47,0.49l0.49,-0.49l0,-0.47l-0.49,0l0,-0.49l0.49,0l-0.49,0l0.96,0l-0.47,-0.48l0.94,0.48l-0.47,0.49l0,0.47l0.47,0.49l0,0.49l0,-0.49l-0.94,0l0,0.49l0.47,0l0,0.49l0.47,0.47l0,0.98l0.49,0l0.47,-0.49l0,0.49l0.49,0l0,-0.49l0.94,0l-0.47,-0.49l0.47,0l-0.47,-0.47l0.47,0l-0.47,0l0.47,-0.49l0.49,-0.49l-0.49,0l0.49,0l0,-0.96l-0.96,0l0.47,-0.49l0.49,0l-0.49,-0.48l0.49,-0.49l0.47,0l-0.47,0l1.9,0l0.49,0.49l0,-0.49l0,1.46l1.9,0l0,0.96l0.49,0.49l0.47,0.49l0,0.47l-0.47,0l0.47,0.98l0,-0.49l0.48,0.49l0.47,0.49l0.48,0.48l0.49,0.47l0.47,0l-0.47,-0.95l0.47,0.48l-0.47,-0.97l-0.49,-0.49l0.49,-0.49l0.47,0l0,-0.47l-0.47,0l0,-1.47l-0.49,-0.47l0.49,0l0,-0.49l0.47,-0.48l0,-0.49l0.49,0l0.47,-0.49l1.43,0l0,-0.47l-0.96,0l0,-0.49l-0.94,0l0,0.49l-0.49,0l-0.47,-0.49l-0.96,-0.49l-0.47,0.49l0.47,0.49l-0.47,0l-0.49,-0.49l-0.47,0l0.47,0l-0.47,-0.49l-0.96,-0.49l0,-0.49l-0.47,0l0,0.49l0,-0.49l-1.45,0l-0.47,-0.47l0.96,0l0,-0.49l-0.49,0l0,-0.49l1.45,0l0.47,-0.48l0,0.48l0.47,-0.48l0,0.48l0.49,0l0,-0.48l0.95,0l0.47,0.48l0,-0.48l0.48,0.48l1.92,0l0,-0.48l0,0.48l0.47,0l0,-0.48l0.49,0l0,-0.49l0.47,0l0.48,-0.47l0,-0.49l0.47,-0.49l0,-0.49l-0.47,0l0.47,0l0,-0.47l0.49,0l-0.49,0l0.49,-0.49l0,-0.49l-0.96,0l0,0.49l0,-0.49l0.47,0.49l-0.47,0.49l0,0.47l-0.49,0l-0.47,0.49l-0.49,0.49l-0.47,-0.49l0,0.49l0.47,0l0,0.49l-0.94,0l0,-0.49l-0.49,0l0,0.49l-0.95,0l0,0.47l-0.47,-0.47l0.47,0l0,-0.49l-0.47,0.49l-0.47,0l0,-0.49l0.47,-0.49l0,-0.49l-0.47,0l0,0.49l-0.49,0l0,0.98l-0.47,0l0,0.47l-0.96,0l0,0.49l-0.98,0l0,-0.49l-0.96,0l0,-0.47l-0.47,0.47l-0.47,0l-0.49,0.49l-0.47,-0.49l0.47,0l-0.47,-0.47l0.47,0l0,-0.49l0.49,0l0.47,-0.49l0,-0.49l0.47,-0.96l-0.47,0l0,-0.49l-0.47,0l0.47,0l0,-0.49l-0.47,0l0.47,-0.96l1.43,0l0.49,-0.48l0,-0.49l-0.49,-0.49l-0.47,0l0,-0.96l-0.49,0l0,-0.98l0.96,0l0,0.49l0.49,0.49l0.94,0l0,-0.49l0,0.49l0.49,0.47l0.96,-0.47l0.47,-0.49l0.47,0l0.49,-0.49l0.47,-0.49l0.49,-0.47l0,-0.49l0.47,0l0,-0.49l0.47,0l0,-0.48l0.49,0l0.47,-0.49l-0.47,0l0,-0.47l0.47,0l0,0.47l0,-0.96l0.49,0l0,0.49l0.47,0.47l0.96,-0.47l0.47,0l0,-0.98l0.48,0l0.47,-0.49l0.49,0l0,-0.47l0.94,0l0,-0.49l0.49,0.49l0,-0.98l0.47,0l0,-0.97l0.49,0l-0.49,0.48l0.49,0l0,1.47l0.94,0l0,-0.49l0.96,0l0,-0.98l-0.47,0.49l-0.49,-0.49l0,0.49l-0.47,-0.49l0.47,0l-0.47,0l0.47,-0.49l-0.47,0l0.47,0l-0.47,-0.47l0.47,0l0,-0.97l0.49,0.49l0,-0.49l-0.49,0l0.49,-0.49l-0.49,-0.49l0.49,0.49l0,-0.96l0.47,0l0,-0.49l2.39,0l0.49,0.49l0.96,0l0.94,-0.49l0,-0.49l0.96,0l0.49,-0.49l0.47,-0.49l-0.47,-0.47l1.9,0l0,-0.49l0.49,0l-0.49,-0.48l0.49,-0.49l0.47,-0.47l0,-0.49l0.47,0.49l1.45,0l0.47,-0.49l0.47,0.96l-0.47,0l0,1.93l-0.47,0l0,0.49l0.47,0.49l0.47,0l0,1.45l-0.47,-0.47l-0.47,0l-0.49,-0.49l0,-0.49l0,0.98l0.49,0l0,0.47l-0.49,0l0,0.98l-0.47,0l0,0.49l0.47,0l-0.96,0l0,0.48l0.96,0l0,0.96l-0.47,-0.49l-0.49,0l-0.47,0.49l-0.47,0l0.47,0.49l0.96,0l0.47,0.49l0,-0.49l0.49,0.49l0,-0.49l0.47,-0.49l0.47,0l0,0.49l0.49,0l0,-0.97l-0.49,0l0,-0.47l-0.47,0l0,-0.49l-0.47,-0.98l0.94,-0.49l0.49,0.49l0.96,0l-0.96,0l0.47,0.49l-0.47,0l0.47,0l0,0.49l0,-0.49l0.96,0l-0.47,0l0.47,0.49l-0.47,0l0.94,-0.49l0,0.49l0,-0.49l-0.47,0l0,-0.49l-0.47,0l0,-0.96l1.43,0l-0.49,-0.49l0,-0.49l0.49,0l0,0.49l0.47,0l0,-0.49l0.49,-0.49l0.94,0l0,-0.49l0.96,0l0.49,-0.47l1.43,0l0,-0.49l0.47,0l0,-0.97l0.49,0l0.95,-0.47l0.47,0l0,-1.45l0,0.47l0.47,0l0.96,0.98l-0.47,0l0,0.47l0,-0.47l-0.49,0.47l0,0.49l-0.94,0.49l0.47,0.48l-0.47,0l0.47,0.47l-0.47,0l-0.49,0.49l0.49,0.49l0.94,0l0,-0.98l0.49,-0.47l0,0.47l0.96,0l0,-0.47l0.94,0l0,1.94l0.49,0l-0.49,0.49l0.49,0.47l0.96,0l0,0.49l-0.49,0l0.49,0l-0.49,0.49l0,0.49l0.49,0l0,0.48l-0.49,0.47l0,0.98l0.49,0.49l0.47,0l0,-0.49l0,1.45l0,-1.94l0.47,0l0,-0.49l0.49,0l0.47,-0.47l-0.47,0l0,-1.46l1.92,0l0,-1.45l0.47,0l0.47,0.49l0.49,-0.98l0.47,0.98l0,0.47l0.49,0l0,-0.47l0.47,0.47l0.47,-0.47l0.49,0.47l0.96,0l0,0.49l-0.49,0l0.49,0l-0.49,0l-0.47,0.49l0.47,0.49l0.49,0l0,0.48l1.43,0l0,0.47l-0.49,0l0.49,0l0,-0.47l0.47,0l-0.47,0.47l0.96,0l0,0.49l0.94,0l0,0.49l0.49,0l-0.49,0l0.49,0l0.47,0.49l0.96,0.49l0,-0.49l0.49,0.49l0.47,0l0,0.96l0.47,0.49l-0.47,-0.49l0,0.49l0.47,0.49l0,0.47l0.49,0l0,0.49l0.47,0l0,0.48l-0.47,0l0.47,0.49l0,-0.49l0,0.49l0.49,0l0,0.49l0.47,0.47l0.47,0.98l0.49,0.49l0,0.47l0.45,0l0.49,0.49l0.47,0l0,0.49l0.96,0.49l0.47,0l-0.47,0.48l0.47,0l-0.96,0.47l0,0.49l-0.47,0l0,-0.49l0.47,0.49l0.49,0l0,0.49l-0.49,0l0,0.49l0.96,-0.49l0,-0.98l0.49,0l0,-0.47l0.94,0.47l0.49,0.49l1.9,0l0,0.49l0.96,0l0,0.49l1.91,-0.49l0.47,0.49l0,-0.49l0.49,0l-0.49,0l0.49,-0.49l0.47,0.49l0.49,0l0.47,0.49l0,-0.49l0.47,0l0.49,0.49l0.47,0l0,-0.49l0.49,0.49l-0.49,-0.49l0.49,0l0,0.49l0.47,0l0,0.49l0,-0.49l0.47,0l0.49,0.49l-0.49,0l0,0.47l0.49,0l0,0.49l-0.49,0.98l-0.47,0.96l-0.47,0.97l0.47,0.49l-0.47,0.47l0,0.98l-0.49,0.49l-0.47,0l-0.49,0.49l-0.47,0l-0.47,0.96l0,0.97l0,-0.49l-0.49,0.49l0,0.49l-0.47,0l0,0.47l-0.96,0l-0.48,0.49l0,-0.49l-0.95,-0.47l-0.48,0.47l-0.47,-0.47l-0.49,0l-0.47,0.47l0.47,0.49l-0.47,0.49l0.47,0.49l0,0.47l-0.47,-0.47l0,0.47l-0.47,0.49l0,0.49l0.47,0l0,0.49l0.47,0.48l0.49,0.47l0.47,-0.47l0.49,-0.48l0.47,0l0,0.48l0.47,0.47l-0.47,0.98l0,2.43l0.47,0l0.49,0.49l0,0.96l0.47,0l0,0.97l0.48,0l0.47,0.49l0.49,0l0.47,-0.49l0.47,0l0,1.45l-0.47,0.49l0,2.41l0.47,0.5l0.49,0.47l0,0.49l0.47,0.49l0.49,0l0.94,1.45l0,-0.96l0.49,0l0.47,1.45l0.49,0l0.47,0.49l0.96,-0.49l0,1.46l-0.49,0.96l-0.47,0.98l0.47,1.45l0.49,0l0.47,0.49l0,0.49l0.96,0.47l0,-0.47l0.47,-0.49l0.49,0l0.47,-0.49l0.49,0l0.47,-0.49l0.96,0l0,-0.96l0.47,-0.49l0,-0.98l0.49,0l0,-0.47l0,0.96l0.47,0l0.49,0.98l0.47,0l0.47,0.47l0,0.49l0.49,0.49l0,0.49l0.47,0.49l-0.47,0l0,1.44l-0.96,0.49l-0.47,0.47l-0.49,0l0,0.49l-0.47,0l-0.49,0.98l-1.43,0l-0.47,0.49l-0.49,0.47l-0.47,0.49l-0.49,-0.96l-0.47,0l0,-0.49l-0.47,0.49l0,0.47l-0.49,0l0,0.98l-0.47,-0.49l0,0.98l-0.49,0l0,1.93l-0.43,0l0,0.49l0,-0.49l-0.47,-0.49l-0.49,0.98l-0.47,0l0,0.49l0.47,0.47l0,0.98l0.49,0l0,0.49l0.47,0l0,0.47l0.47,0.49l0,-0.49l0.49,0l-0.49,-0.47l0,-2.43l0.49,0l0,-0.49l0.47,0.49l0.49,1.45l0.47,0.49l0.47,0.49l0.49,0.96l2.39,0l0.47,0.48l0,0.49l1.44,1.94l0,1.45l-0.48,0.97l0.48,0.96l0.47,0l-1.44,0l0.49,0.49l0.48,0.98l0.47,0.49l0,0.96l0.48,0.98l-0.94,-0.49l0,-0.49l-0.49,0l0.49,0l-2.39,0.49l0.94,1.93l0,0.98l0.49,0.47l0.47,0l-0.47,0.49l0.47,0l-0.96,0.49l0,0.49l-0.47,0.49l-0.47,0.47l0.47,0.49l-0.47,0.48l-0.49,0.49l-0.47,0.49l-0.49,0l-0.47,0.47l0,0.49l-0.49,0.49l-1.9,1.45l-0.49,0l-0.47,-1.45l-0.47,0l-0.49,0.49l0.49,0.47l-0.49,0.49l0,0.98l-0.96,0.48l-0.47,-0.48l-0.96,0l-0.96,0.95l0.49,0l-0.96,0l-0.47,0.98l-0.49,0.49l0.96,0.96l0,0.49l0.47,0.49l0,0.49l0.49,0l-0.49,0.47l0.49,0l-0.49,0.49l0.49,0.48l0.47,0.49l-0.47,0l-0.49,-0.49l0,0.49l-0.47,0l-0.47,0.49l-0.49,0l-0.47,0.47l0.47,0.49l-0.47,0.98l0.47,0.47l-0.47,0.49l0.47,0.97l0.49,0l0,0.49l-0.96,0.47l-0.49,0.49l0,0.49l-0.47,0.98l-0.49,-0.49l0.49,0.49l-0.49,0.96l0.49,0l0,0.98l-0.49,0.47l0,0.49l-0.47,0.48l1.92,0l0.47,0.49l0.49,0.49l0.47,0l0.96,-0.49l0,0.49l0.47,0l0.96,0.47l0.47,0l0.49,-1.45l0,-0.49l2.39,0l0.47,0.98l0.49,0l0.47,0.49l1.45,0.47l0.94,0.98l0.96,0l0.47,-0.49l0.49,0l0,0.49l0.47,0.49l0,0.49l0.49,0.47l0,0.97l-0.96,0.49l0,1.45l0.47,0.49l-0.47,0l0,0.49l-0.49,0.47l0,0.49l-0.47,0l-0.47,0.49l0.47,0.49l0.96,0.48l0,0.47l0.96,0l0,0.49l0.94,0l0.96,0.49l0,0.98l1.43,0l0.48,0.47l0,1.47l-0.48,0.96l0.48,0.48l0,0.49l-0.48,-0.49l0.48,0.49l0,0.49l-0.48,0.47l0,0.49l-0.47,0.98l-0.48,0.47l-0.48,0.98l0,0.97l-0.47,0l0,0.47l-0.49,-0.47l-0.47,0.47l0,-0.47l-0.47,0.47l0,0.49l-0.49,0.49l0,0.49l0.49,0.49l0,0.96l0.47,0l-0.47,0.49l-0.49,-0.98l-0.96,0l-0.94,-0.47l-2.41,0l-0.94,0.96l-0.49,0.49l0.49,0.49l-0.96,0.96l-0.49,0l-1.43,0.97l-0.47,0l0,0.49l-0.49,1.94l0,0.49l-0.47,0.96l-1.92,0l0,0.97l-0.47,0l0.47,0l0,0.47l-0.47,0l0,0.49l-0.47,0l0,1.47l-0.96,0l-0.96,0.47l0,0.98l0.47,0.49l0.49,0.48l2.39,0l0,1.45l0.47,0.49l0.49,0.47l-0.49,0l-0.47,0.98l-0.49,0.49l0,0.49l-0.47,0.47l0,0.49l-0.47,0l0,0.48l0.47,0.98l-0.47,0.47l-0.49,0l-0.47,0.98l-1.94,0l0,-0.49l-0.47,0l0,0.49l-1.92,0l0,-0.98l-0.47,-0.96l-1.44,-0.97l-0.47,0l-0.47,-0.49l-1.45,0l0,0.97l-0.47,0l-0.96,-0.48l-0.47,0.97l0,1.45l-0.49,0.49l0.49,0l-0.49,0.49l0.49,0l0,0.49l0.47,0.96l-0.47,0l0.47,0.49l-0.47,0.48l0,0.47l-0.49,0l0,0.49l-0.47,1.45l-0.96,0l-0.47,0.49l-0.96,0.49l-1.43,0l-0.96,0.49l-0.49,0.49l-1.43,0l-0.47,0.47l-0.49,0.49l0,-0.49l-1.43,0l-0.96,0.49l-0.47,-0.96l-1.45,0.47l0,0.49l-0.47,0.48l0,0.49l-0.47,0l0,0.49l-0.47,0.47l-0.49,0l-0.47,0.49l0,-0.49l0.47,-0.47l-0.47,-0.49l0.47,-0.49l-0.47,0l-0.96,-0.97l0,-1.45l-0.49,-0.49l-1.9,0l0,-0.47l-1.43,0l0,0.96l0.47,0.49l-0.96,0.49l-1.43,0.47l-0.47,0l0,0.49l-0.49,-0.49l-0.95,0.49l-1.43,-0.49l-0.96,0.49l0,-1.45l0.49,0l0,-0.49l0.47,-0.49l0,-0.96l0.49,0l0.47,-0.49l0,-0.49l-0.47,0.49l0,-0.49l-0.96,0.49l-0.49,-0.49l-2.39,0l-0.47,-0.49l-0.49,-0.47l-0.47,0l-0.47,-0.97l-0.49,-0.49l-0.47,0l-1.92,0.98l-0.96,0l0,-0.49l-0.47,0l-0.96,0.97l-0.96,0l-0.47,0.47l-2.86,0l0,0.98l-0.49,0.49l-0.96,0l0,0.49l-0.47,0.47l-0.49,-0.47l-0.47,-0.49l0.47,-0.49l0,-3.38l0.49,-0.98l0,-0.49l-0.49,0l-0.94,-0.49l0,0.49l-0.49,1.45l-0.47,1.95l-0.49,0l-0.47,0.47l-0.47,0l-0.49,0.49l-0.47,-0.49l-1.43,0l-0.49,0.49l0,0.49l-0.47,0l0,0.49l-0.49,0.49l-0.47,0.96l-0.47,0.49l-1.44,0l0,0.49l-0.96,0l0,0.47l-1.43,0l-0.47,0.49l0,-0.49l-0.49,0.49l-0.47,0l0,-0.49l-0.96,0l-0.47,0.49l-1.45,-0.96l-0.94,0l0.47,-3.41l0,-0.49l-0.47,-0.95l-1.92,0l0,-0.49l0.49,0l-0.49,0l0.49,-0.49l-0.49,-0.47l-0.47,-0.49l0,-1.47l0.47,-0.47l0.49,-1.45l1.43,-0.97l0,-0.49l0.47,-0.49l0.49,-0.98l0,-0.47l1.43,-0.49l0.96,-0.97l0,-0.47l0.47,0.47l0.47,-0.47l0.96,0l0.49,-0.49l0.47,-0.98l0,-1.45l-0.47,-0.49l-0.49,-1.45l-0.47,-0.48l-0.49,-0.49l-0.47,0l-0.96,0.49l-0.47,-0.49l-0.49,0l-0.94,0.97l-0.49,0l-0.47,-0.97l0,-5.34l0.47,0l-0.47,0l-0.49,-0.96l0,0.49l-0.47,0.47l-0.47,0.49l-0.96,0l-0.49,-0.49l-0.94,0.49l0,0.97l-0.96,0l-0.96,0.49l-0.47,0l0,0.47l-0.49,0l-0.96,0.49l0,-0.49l-0.47,0.49l0,0.98l-0.49,0.49l-0.47,-0.49l-1.92,0l-0.47,0.96l-0.47,0l-0.49,-0.47l-0.47,0l-0.96,0.47l-0.47,0l-0.96,-0.96l-5.26,0l0,0.49l0.49,0.47l-1.45,0.98l-5.25,0l-0.47,0.48l-0.49,0.47l-0.47,0.49l-0.49,0.49l0,1.94l-1.43,0.98l-0.47,0l-0.49,0.49l-0.96,0l-0.94,0.47l-0.96,0.97l-0.49,0.49l0.49,0.47l-0.49,0.49l-0.47,0.49l-0.96,0.98l-0.96,0.47l-2.39,0.97l-0.47,0.49l-0.47,0.49l0,0.47l-0.49,0.49l-0.96,0.49l-0.47,0l-0.47,-0.98l0,-0.96l0.47,0l-0.47,-0.49l0.47,0l-0.47,0l0.47,-0.48l-0.47,-0.49l0,-6.3l0.47,0l0,-0.49l0.47,-0.47l-0.47,0l0,-0.98l-0.47,0l0.47,0l0,-0.98l-0.47,0l0.47,-0.47l0.47,-0.49l-0.47,-0.48l0,-1.45l-0.47,-0.49l0,-0.98l0.47,-0.47l0,-1.45l-0.47,0l0,-0.97l0.94,0l0,0.47l0.49,-0.47l0.47,0l0.49,-0.49l0.47,0l0,-0.49l0.47,0l0,0.49l0.49,0.49l0,0.47l0.47,0l0.49,-0.47l-0.49,-0.49l0.49,0l0,-0.49l0.47,-0.49l-0.47,-0.47l-0.49,-0.49l-0.47,0l-0.49,-0.49l0,-0.49l0.49,0l0.47,0.49l0.49,-0.49l0.47,-0.49l0.47,-0.95l-0.47,-0.98l0.96,0l0,-0.49l0.47,0.49l0,-0.49l0.49,0l0.47,-0.47zm-1.92,-6.3l0.49,0l-0.49,0zm-0.47,-21.83l-0.96,0l0,1.45l-0.47,0l0,-0.47l-0.49,0l0,-0.49l0.49,0l0,0.49l0,-0.49l0,0.49l0.47,0l-0.47,-0.49l0,-0.98l0,0.49l0.47,0l-0.47,-0.49l0,-0.47l0.47,0l0,-0.49l-0.47,0l0,0.49l-0.49,-0.49l0,-0.97l0,0.48l0,-0.48l0.96,0l0,0.97l0.49,-0.49l0.47,0l0,0.49l-0.47,0l0.47,0.49l-0.47,0l0,0.47l0.47,0l0,0.49zm0.47,3.87l0,0.49l-0.47,0l0,0.98l-0.47,-0.49l0,-0.49l0.47,0l0.47,-0.49zl-0.47,-0.47l0.47,0.47zm-10.03,1.96l-0.49,0l0,-0.49l-0.47,-0.49l0.47,-0.49l0,-0.49l0.49,0.49l0,0.98l0.47,0l0,0.49l-0.47,-0.49l0,0.49zm2.86,9.19l0,-0.96l0.49,0l0,-0.48l-0.49,-0.49l0.49,-0.47l0.47,0l0,-0.98l0.49,0.49l0,-0.49l0.47,0l-0.47,0.49l-0.49,1.45l-0.47,1.44l-0.49,0zm0.49,0.98l0,-0.49l0.47,0l0,0.49l-0.47,0zm0.96,7.77l0.47,0.47l0,0.49l0.47,0l-0.47,0.48l0.47,0.49l-0.47,0l0,0.96l-0.96,0l0,-0.47l0.49,0l0,-0.49l0.47,0l-0.47,-0.49l0.47,-0.48l-0.47,-0.49l-0.49,-0.47l0.49,0z" fill="#fff" fill-rule="evenodd" id="svg_5"/>
   </g>
   <path d="m720,0l560,0l0,206l-560,0l0,-206z" fill="transparent" id="svg_6" stroke="transparent"/>
  </g>
 </g>
</svg>